<svg width="24" height="24" viewBox="0 0 24 24" fill="none" xmlns="http://www.w3.org/2000/svg">
<path d="M17.1976 5.53034L5.53033 17.1976C5.38968 17.3383 5.31066 17.529 5.31066 17.7279C5.31066 17.9268 5.38968 18.1176 5.53033 18.2583C5.67098 18.3989 5.86175 18.4779 6.06066 18.4779C6.25957 18.4779 6.45034 18.3989 6.59099 18.2583L18.2583 6.591C18.3989 6.45035 18.4779 6.25959 18.4779 6.06067C18.4779 5.86176 18.3989 5.671 18.2583 5.53034C18.1176 5.38969 17.9268 5.31067 17.7279 5.31067C17.529 5.31067 17.3382 5.38969 17.1976 5.53034Z" fill="white"/>
<path d="M17.1369 18.2583L5.46967 6.59099C5.32902 6.45034 5.25 6.25957 5.25 6.06066C5.25 5.86175 5.32902 5.67098 5.46967 5.53033C5.61032 5.38968 5.80109 5.31066 6 5.31066C6.19891 5.31066 6.38968 5.38968 6.53033 5.53033L18.1976 17.1976C18.3382 17.3382 18.4173 17.529 18.4173 17.7279C18.4173 17.9268 18.3382 18.1176 18.1976 18.2583C18.0569 18.3989 17.8662 18.4779 17.6673 18.4779C17.4684 18.4779 17.2776 18.3989 17.1369 18.2583Z" fill="white"/>
</svg>
